<?xml version="1.0" encoding="UTF-8"?>
<svg xmlns="http://www.w3.org/2000/svg" xmlns:xlink="http://www.w3.org/1999/xlink" width="2500pt" height="2500pt" viewBox="0 0 2500 2500" version="1.1">
<g id="surface1">
<path style=" stroke:none;fill-rule:nonzero;fill:rgb(0%,0%,0%);fill-opacity:1;" d="M 1898.546875 1105.390625 C 1886.15625 1106.597656 1873.722656 1107.226563 1861.273438 1107.285156 C 1724.75 1107.300781 1597.417969 1038.488281 1522.632813 924.269531 L 1522.632813 1547.480469 C 1522.632813 1801.871094 1316.40625 2008.097656 1062.015625 2008.097656 C 807.625 2008.097656 601.398438 1801.871094 601.398438 1547.480469 C 601.398438 1293.089844 807.625 1086.863281 1062.015625 1086.863281 C 1071.632813 1086.863281 1081.03125 1087.726563 1090.484375 1088.324219 L 1090.484375 1315.308594 C 1081.03125 1314.175781 1071.738281 1312.445313 1062.015625 1312.445313 C 932.179688 1312.445313 826.925781 1417.699219 826.925781 1547.535156 C 826.925781 1677.371094 932.179688 1782.621094 1062.015625 1782.621094 C 1191.875 1782.621094 1306.558594 1680.3125 1306.558594 1550.453125 L 1308.824219 492.011719 L 1525.980469 492.011719 C 1546.457031 686.746094 1703.476563 838.851563 1898.761719 853.125 L 1898.761719 1105.390625 M 2114.296875 115.613281 L 385.703125 115.613281 C 236.773438 115.613281 115.609375 236.773438 115.609375 385.703125 L 115.609375 2114.296875 C 115.609375 2263.226563 236.773438 2384.390625 385.703125 2384.390625 L 2114.296875 2384.390625 C 2263.226563 2384.390625 2384.390625 2263.226563 2384.390625 2114.296875 L 2384.390625 385.703125 C 2384.390625 236.773438 2263.226563 115.613281 2114.296875 115.613281 "/>
</g>
</svg>
